<svg xmlns="http://www.w3.org/2000/svg" width="256" height="256" viewBox="0 0 256 256" role="img">
  <title>Idraulico Di Lorenzo Remo</title>
  <desc>Icona: goccia d'acqua con chiave inglese integrata nei colori brand</desc>
  <defs>
    <linearGradient id="g" x1="0" x2="1" y1="0" y2="1">
      <stop offset="0%" stop-color="#183d4e"/>
      <stop offset="100%" stop-color="#132f3d"/>
    </linearGradient>
  </defs>
  <rect width="256" height="256" rx="56" fill="url(#g)"/>
  <!-- Goccia -->
  <path d="M128 48c-2 0-4 .9-5.3 2.6-14.9 19.6-30.2 39.8-39 57.6-6.3 12.8-9.7 24.4-9.7 34.8 0 30.6 24.3 55 54 55s54-24.4 54-55c0-10.4-3.4-22-9.7-34.8-8.8-17.8-24.1-38-39-57.6A6.7 6.7 0 0 0 128 48Z" fill="#2f6f8f"/>
  <!-- Chiave stilizzata -->
  <path d="M149 141.5c-5.8 5.7-15.2 5.6-20.9-.2-5.8-5.8-5.9-15-.2-20.9l20.4-20.4c1.6-1.6 1.6-4.1 0-5.7l-4.7-4.7a4 4 0 0 0-5.7 0l-7.2 7.2a10 10 0 0 1-14.1-14.1l5.2-5.2c3.5-3.5 9.2-3.5 12.7 0l21.7 21.7c3.5 3.5 3.5 9.2 0 12.7l-20.4 20.4c-2.7 2.7-2.7 7.2.1 10 2.7 2.7 7.2 2.8 10-.1l8.6-8.5a4 4 0 0 1 5.7 0l2.8 2.8c1.6 1.6 1.6 4.1 0 5.7L149 141.5Z" fill="#c3d9e7"/>
  <!-- Highlight -->
  <circle cx="100" cy="110" r="10" fill="#5e96b4" opacity="0.35"/>
</svg>
